#!OML:ASF I:\golf\golf\golf 2\Subject 1\2002-09-07\Subject1.ASF
:FULLY-SPECIFIED
:DEGREES
334
root -5.30501 18.0016 -3.43064 -165.855 -2.73255 -174.519
lowerback -10.1725 15.9771 14.7157
upperback -14.7959 17.7519 1.06727
thorax -6.72519 6.34083 -4.87041
lowerneck -9.83901 -17.6764 -0.570732
upperneck 7.1951 -23.5585 -0.980619
head 4.00009 -11.7239 -1.74088
rclavicle -4.69132e-014 1.43125e-014
rhumerus 108.463 26.1945 -51.2489
rradius 66.803
rwrist -1.51678
rhand -42.9606 32.333
rfingers 7.12502
rthumb -15.8204 2.95937
lclavicle -4.69132e-014 1.43125e-014
lhumerus 65.9435 26.2959 57.6069
lradius 75.8146
lwrist 19.53
lhand -22.2884 12.8574
lfingers 7.12502
lthumb -175.87 222.797
rfemur 16.5847 -4.91834 22.5072
rtibia 9.72903
rfoot 32.8957 -27.9173
rtoes 21.4269
lfemur -30.0829 -20.7718 -10.6542
ltibia 27.0339
lfoot 35.8586 -44.2726
ltoes 54.3103
335
root -5.31304 18.0058 -3.41682 -165.803 -2.54562 -174.343
lowerback -10.2084 15.9061 15.0667
upperback -14.6805 17.615 1.17116
thorax -6.54297 6.26092 -4.91958
lowerneck -10.0449 -17.5296 -1.01416
upperneck 7.43567 -23.3539 -0.599639
head 4.23997 -11.6063 -1.61741
rclavicle 5.64548e-014 5.56597e-015
rhumerus 108.152 26.0227 -51.2664
rradius 66.1389
rwrist -2.88037
rhand -42.4442 32.5539
rfingers 7.12502
rthumb -15.323 3.14155
lclavicle 5.64548e-014 5.56597e-015
lhumerus 65.5925 26.1132 56.8842
lradius 74.9309
lwrist 19.9991
lhand -21.3397 13.086
lfingers 7.12502
lthumb -174.954 223.006
rfemur 16.3338 -4.53744 22.597
rtibia 10.0097
rfoot 32.9809 -27.7156
rtoes 21.5802
lfemur -30.1309 -20.6983 -10.4869
ltibia 27.0341
lfoot 35.4303 -44.1651
ltoes 54.1883
336
root -5.31633 18.0089 -3.40546 -165.822 -2.3227 -174.257
lowerback -10.1713 15.7813 15.2144
upperback -14.5649 17.442 1.33201
thorax -6.47426 6.17702 -4.84916
lowerneck -10.2662 -17.3818 -1.28979
upperneck 7.6802 -23.1333 -0.501064
head 4.42346 -11.4911 -1.58913
rclavicle -5.96354e-015 -1.05753e-013
rhumerus 107.95 25.9878 -51.274
rradius 65.4189
rwrist -4.0283
rhand -42.2545 32.1812
rfingers 7.12502
rthumb -15.1403 2.75498
lclavicle -5.96354e-015 -1.05753e-013
lhumerus 65.0901 25.8977 56.0714
lradius 73.9984
lwrist 20.4228
lhand -20.696 13.3436
lfingers 7.12502
lthumb -174.332 223.248
rfemur 16.1639 -4.38857 22.53
rtibia 10.314
rfoot 33.429 -26.7554
rtoes 20.2932
lfemur -30.0732 -20.6148 -10.4434
ltibia 27.0241
lfoot 35.1716 -43.9603
ltoes 54.0985
337
root -5.31207 18.0081 -3.39726 -165.876 -2.01761 -174.334
lowerback -10.0664 15.6687 15.1126
upperback -14.475 17.3315 1.42986
thorax -6.49963 6.14215 -4.74231
lowerneck -10.5136 -17.2967 -1.21637
upperneck 7.88668 -22.9968 -0.758109
head 4.50251 -11.4293 -1.70443
rclavicle -3.06128e-014 7.95139e-016
rhumerus 107.397 25.6735 -51.2595
rradius 64.9662
rwrist -5.4258
rhand -41.9197 31.765
rfingers 7.12502
rthumb -14.8178 2.31475
lclavicle -3.06128e-014 7.95139e-016
lhumerus 64.6422 25.4526 55.4139
lradius 73.0762
lwrist 20.6693
lhand -20.3254 13.6066
lfingers 7.12502
lthumb -173.974 223.501
rfemur 16.0333 -4.17486 22.3227
rtibia 10.6279
rfoot 33.6324 -26.0535
rtoes 19.6567
lfemur -29.9547 -20.5698 -10.5571
ltibia 26.9979
lfoot 34.5918 -44.118
ltoes 53.954
338
root -5.30437 18.009 -3.38994 -165.924 -1.65876 -174.4
lowerback -10.0066 15.5657 14.9719
upperback -14.3691 17.2245 1.53716
thorax -6.49402 6.11616 -4.59556
lowerneck -10.6613 -17.1983 -1.10097
upperneck 7.94399 -22.8499 -0.968182
head 4.50889 -11.3623 -1.78771
rclavicle 1.145e-013 1.145e-013
rhumerus 106.942 25.5439 -51.3837
rradius 64.3081
rwrist -6.59378
rhand -41.1788 31.3064
rfingers 7.12502
rthumb -14.1039 1.80503
lclavicle 1.145e-013 1.145e-013
lhumerus 64.315 24.9365 54.8803
lradius 72.1454
lwrist 20.9619
lhand -19.9333 13.7314
lfingers 7.12502
lthumb -173.596 223.615
rfemur 15.879 -3.80421 22.185
rtibia 10.9654
rfoot 33.7292 -25.5337
rtoes 19.1383
lfemur -29.8236 -20.5492 -10.6257
ltibia 26.9509
lfoot 33.5894 -44.5829
ltoes 53.6324
339
root -5.29758 18.0121 -3.38162 -165.98 -1.35366 -174.323
lowerback -9.98257 15.4862 15.0056
upperback -14.248 17.1195 1.68454
thorax -6.42251 6.07891 -4.47277
lowerneck -10.6476 -17.0686 -1.08005
upperneck 7.81831 -22.6642 -1.01112
head 4.45237 -11.273 -1.77781
rclavicle -6.67916e-014 -3.33958e-014
rhumerus 106.488 25.7002 -51.6948
rradius 63.3985
rwrist -7.238
rhand -40.6631 30.9948
rfingers 7.12502
rthumb -13.6069 1.45949
lclavicle -6.67916e-014 -3.33958e-014
lhumerus 64.0425 24.4022 54.3878
lradius 71.2075
lwrist 21.3757
lhand -19.6802 13.8671
lfingers 7.12502
lthumb -173.351 223.743
rfemur 15.7382 -3.4348 22.2248
rtibia 11.2743
rfoot 33.901 -24.9602
rtoes 18.07
lfemur -29.6946 -20.5016 -10.5385
ltibia 26.9001
lfoot 33.1279 -44.5533
ltoes 53.5331
340
root -5.29198 18.0149 -3.37441 -166.022 -1.07838 -174.26
lowerback -10.0015 15.4286 15.0704
upperback -14.1342 17.0307 1.79389
thorax -6.31442 6.04794 -4.38994
lowerneck -10.6249 -16.9392 -1.098
upperneck 7.73239 -22.4798 -1.02766
head 4.4176 -11.1837 -1.7585
rclavicle 6.75868e-015 -2.06736e-014
rhumerus 106.047 25.7474 -51.8601
rradius 62.4834
rwrist -7.97348
rhand -40.6058 30.8623
rfingers 7.12502
rthumb -13.5517 1.32331
lclavicle 6.75868e-015 -2.06736e-014
lhumerus 63.8038 23.8279 53.9838
lradius 70.2563
lwrist 21.5618
lhand -19.3196 13.9639
lfingers 7.12502
lthumb -173.003 223.828
rfemur 15.6352 -3.26102 22.1919
rtibia 11.4854
rfoot 33.9819 -24.5964
rtoes 17.6659
lfemur -29.5858 -20.4126 -10.4874
ltibia 26.8651
lfoot 32.9491 -44.3724
ltoes 53.4974
341
root -5.28828 18.0182 -3.37249 -166.061 -0.736152 -174.211
lowerback -10.1051 15.3947 15.1239
upperback -13.9901 16.9529 1.89527
thorax -6.12472 6.03167 -4.28586
lowerneck -10.786 -16.811 -1.06603
upperneck 7.82266 -22.2898 -1.1775
head 4.45931 -11.0936 -1.81687
rclavicle 2.00773e-013 9.22361e-014
rhumerus 105.61 25.5543 -51.8115
rradius 61.7628
rwrist -9.14647
rhand -40.6213 30.6581
rfingers 7.12502
rthumb -13.5667 1.12013
lclavicle 2.00773e-013 9.22361e-014
lhumerus 63.5685 23.2664 53.5598
lradius 69.2177
lwrist 21.3913
lhand -18.6972 14.066
lfingers 7.12502
lthumb -172.403 223.91
rfemur 15.5745 -3.13866 22.086
rtibia 11.6184
rfoot 34.0689 -24.346
rtoes 17.7739
lfemur -29.4659 -20.3246 -10.4757
ltibia 26.844
lfoot 32.2146 -44.6004
ltoes 53.1711
342
root -5.2853 18.0206 -3.3718 -166.117 -0.367606 -174.104
lowerback -10.0634 10.7218 16.0575
upperback -13.3328 18.043 2.97713
thorax -6.14421 9.54746 -4.18718
lowerneck -11.0978 -16.6407 -0.841083
upperneck 8.00064 -22.0576 -1.45163
head 4.52289 -10.9829 -1.95408
rclavicle -7.95139e-016 -6.36111e-015
rhumerus 105.226 25.3202 -51.7182
rradius 61.1127
rwrist -10.4215
rhand -40.7719 30.3484
rfingers 7.12502
rthumb -13.7118 0.820107
lclavicle -7.95139e-016 -6.36111e-015
lhumerus 63.3382 22.7616 53.0004
lradius 68.1659
lwrist 21.4256
lhand -18.4402 14.294
lfingers 7.12502
lthumb -172.155 224.128
rfemur 15.5456 -3.00375 22.0366
rtibia 11.7161
rfoot 34.2179 -24.1045
rtoes 17.7047
lfemur -29.3252 -20.2531 -10.4086
ltibia 26.8173
lfoot 31.697 -44.5349
ltoes 53.0663
343
root -5.27726 18.0236 -3.36646 -166.14 -0.0762853 -174.052
lowerback -10.2041 10.5966 16.0347
upperback -13.2032 17.7732 3.09108
thorax -5.99626 9.41785 -4.04624
lowerneck -11.369 -16.3446 -0.376494
upperneck 8.59217 -21.6989 -1.74952
head 4.20986 -10.8224 -1.9214
rclavicle -3.53837e-014 -4.77083e-014
rhumerus 104.953 25.3167 -51.8016
rradius 60.3212
rwrist -11.4658
rhand -40.9403 30.2503
rfingers 7.12502
rthumb -13.8741 0.733085
lclavicle -3.53837e-014 -4.77083e-014
lhumerus 63.0488 22.3019 52.3578
lradius 67.2133
lwrist 21.7927
lhand -18.371 14.4531
lfingers 7.12502
lthumb -172.088 224.285
rfemur 15.4913 -2.85256 22.0248
rtibia 11.8022
rfoot 34.124 -24.2552
rtoes 18.1546
lfemur -29.2374 -20.1498 -10.3636
ltibia 26.7735
lfoot 31.7849 -44.1318
ltoes 53.2724
